<svg width="12px" height="8px" viewBox="0 0 9 6" version="1.1" xmlns="http://www.w3.org/2000/svg" xmlns:xlink="http://www.w3.org/1999/xlink">
    <!-- Generator: Sketch 43.1 (39012) - http://www.bohemiancoding.com/sketch -->
    <desc>Created with Sketch.</desc>
    <defs></defs>
    <g id="Page-1" stroke="none" stroke-width="1" fill="none" fill-rule="evenodd">
        <g id="我的报表" transform="translate(-316.000000, -170.000000)" fill="#666666">
            <g id="Group-3" transform="translate(230.000000, 159.000000)">
                <path d="M94.8775255,15.9720926 L90.8835158,11.1841516 C90.7862724,11.0677859 90.6398215,11 90.4839977,11 C90.3293455,11 90.181723,11.0677859 90.0856512,11.1841516 L86.1127305,15.9517568 C85.9358178,16.1641525 85.970966,16.4748377 86.1912282,16.6454321 C86.4114904,16.8160265 86.7336824,16.7821336 86.9105952,16.5697379 L90.4851693,12.2811527 L94.0796608,16.5912034 C94.2565735,16.8035991 94.5787656,16.837492 94.7990278,16.6668976 C94.9243898,16.5686081 94.9899998,16.4262578 94.9899998,16.281648 C94.9899998,16.1731906 94.9525083,16.0636035 94.8775255,15.9720926 Z" id="Shape" transform="translate(90.495000, 13.887801) scale(1, -1) translate(-90.495000, -13.887801) "></path>
            </g>
        </g>
    </g>
</svg>